<?xml version="1.0" standalone="no"?>
<!DOCTYPE svg PUBLIC "-//W3C//DTD SVG 20010904//EN"
 "http://www.w3.org/TR/2001/REC-SVG-20010904/DTD/svg10.dtd">
<svg version="1.0" xmlns="http://www.w3.org/2000/svg"
 width="500.000000pt" height="500.000000pt" viewBox="0 0 500.000000 500.000000"
 preserveAspectRatio="xMidYMid meet">
<metadata>
Created by potrace 1.11, written by Peter Selinger 2001-2013
</metadata>
<g transform="translate(0.000000,500.000000) scale(0.100000,-0.100000)"
fill="#000000" stroke="none">
<path d="M2490 4419 c0 -5 5 -7 10 -4 6 3 10 8 10 11 0 2 -4 4 -10 4 -5 0 -10
-5 -10 -11z"/>
<path d="M2610 4419 c0 -5 5 -7 10 -4 6 3 10 8 10 11 0 2 -4 4 -10 4 -5 0 -10
-5 -10 -11z"/>
<path d="M2349 4403 c-13 -16 -12 -17 4 -4 16 13 21 21 13 21 -2 0 -10 -8 -17
-17z"/>
<path d="M2195 4400 c-3 -5 -1 -10 4 -10 6 0 11 5 11 10 0 6 -2 10 -4 10 -3 0
-8 -4 -11 -10z"/>
<path d="M2235 4401 c-3 -5 -2 -12 3 -15 5 -3 9 1 9 9 0 17 -3 19 -12 6z"/>
<path d="M2305 4400 c-3 -6 1 -7 9 -4 18 7 21 14 7 14 -6 0 -13 -4 -16 -10z"/>
<path d="M2375 4400 c-3 -5 -1 -10 4 -10 6 0 11 5 11 10 0 6 -2 10 -4 10 -3 0
-8 -4 -11 -10z"/>
<path d="M2551 4400 c-1 -11 -11 -16 -35 -16 -19 0 -33 3 -30 7 3 6 -26 5 -33
-1 -9 -7 -30 -5 -42 4 -11 8 -13 8 -8 -1 9 -15 -119 -23 -135 -8 -8 7 -9 6 -3
-3 5 -11 -2 -13 -31 -12 -22 1 -41 1 -44 0 -13 -4 -49 -11 -90 -16 -25 -4 -52
-10 -60 -14 -9 -6 -22 -2 -35 8 -19 16 -19 16 -6 0 11 -15 11 -18 0 -19 -8 0
-24 -2 -37 -5 -17 -3 -21 0 -16 8 4 7 -2 4 -14 -6 -12 -11 -22 -16 -22 -11 0
4 -7 2 -15 -5 -13 -10 -19 -9 -38 6 -18 16 -20 16 -8 1 16 -20 15 -22 -22 -31
-22 -5 -27 -4 -22 6 4 7 0 5 -9 -6 -9 -11 -22 -16 -31 -12 -11 4 -14 2 -9 -6
5 -8 2 -9 -9 -5 -10 3 -17 3 -17 -1 0 -5 -17 -14 -37 -21 -21 -7 -57 -21 -81
-32 -24 -11 -48 -16 -54 -13 -7 5 -8 2 -3 -6 6 -10 1 -12 -21 -7 -16 3 -23 4
-16 1 17 -8 5 -24 -13 -17 -8 3 -15 1 -15 -3 0 -10 -51 -35 -61 -31 -4 1 -16
-7 -28 -17 -12 -11 -21 -15 -21 -10 0 5 -4 4 -8 -2 -12 -20 -102 -65 -114 -58
-6 4 -8 3 -4 -4 12 -19 -17 -26 -31 -7 -7 11 -13 14 -13 9 0 -6 5 -15 11 -21
8 -8 3 -16 -21 -28 -18 -10 -42 -25 -53 -36 -11 -10 -24 -16 -29 -13 -4 3 -8
-1 -8 -9 0 -13 -31 -34 -37 -25 -1 2 -8 -6 -16 -16 -8 -10 -19 -16 -25 -12 -8
5 -10 1 -5 -11 3 -10 3 -15 -1 -11 -4 4 -22 -9 -38 -28 -19 -21 -37 -33 -46
-29 -10 4 -12 0 -8 -11 4 -12 2 -15 -9 -10 -8 3 -14 0 -12 -7 1 -7 -4 -11 -11
-9 -6 1 -12 -4 -12 -11 0 -18 -45 -59 -54 -50 -4 5 -6 1 -4 -7 1 -8 -3 -14
-10 -12 -6 1 -11 -1 -10 -5 3 -15 -14 -43 -23 -37 -5 3 -6 10 -3 16 4 7 2 8
-4 4 -6 -4 -8 -14 -5 -24 6 -15 5 -16 -13 -2 -18 14 -18 14 -5 -3 13 -16 10
-21 -22 -52 -19 -18 -33 -36 -29 -39 3 -3 -1 -6 -8 -6 -7 0 -10 -3 -7 -7 4 -3
-5 -16 -18 -29 -14 -13 -25 -28 -25 -33 0 -6 -11 -22 -25 -36 -14 -14 -23 -25
-20 -25 4 0 -9 -22 -28 -49 -19 -27 -46 -69 -60 -95 -13 -25 -27 -42 -31 -39
-4 4 -4 0 0 -10 3 -10 1 -17 -6 -17 -6 0 -8 -5 -5 -10 3 -6 0 -13 -9 -16 -8
-3 -12 -12 -9 -20 3 -8 0 -14 -6 -14 -6 0 -10 -3 -9 -7 1 -5 -2 -18 -6 -31 -5
-16 -13 -22 -24 -17 -13 5 -14 3 -5 -6 13 -13 -3 -73 -18 -63 -5 3 -6 -2 -3
-10 3 -9 1 -16 -5 -16 -6 0 -8 -7 -4 -15 3 -9 -3 -25 -13 -37 -11 -12 -13 -18
-6 -14 10 6 10 2 0 -21 -7 -15 -17 -31 -23 -35 -6 -5 -5 -8 3 -8 10 0 10 -5 2
-21 -6 -11 -14 -30 -16 -42 -11 -49 -16 -73 -18 -92 -2 -11 -6 -27 -9 -35 -3
-8 -8 -35 -9 -60 -2 -25 -9 -45 -15 -45 -6 0 -15 -4 -20 -8 -4 -5 -1 -7 7 -5
8 1 15 -4 15 -12 0 -8 -6 -14 -13 -12 -8 1 -11 -2 -7 -8 3 -6 10 -8 15 -5 5 3
7 -9 4 -27 -9 -59 -9 -298 0 -298 5 0 2 -8 -5 -17 -10 -11 -10 -14 -2 -9 7 4
13 2 13 -3 0 -6 -6 -11 -12 -11 -10 0 -10 -2 -1 -8 7 -4 10 -16 9 -27 -2 -11
0 -27 5 -36 5 -10 3 -21 -4 -29 -7 -7 -7 -10 -2 -7 10 5 37 -122 38 -180 1
-13 5 -23 9 -23 4 0 8 -7 8 -16 0 -9 -5 -12 -12 -8 -7 4 -4 -2 6 -14 11 -12
16 -25 13 -29 -4 -3 -2 -12 4 -19 6 -8 9 -21 5 -29 -4 -11 -2 -14 6 -9 7 5 9
0 6 -14 -4 -12 -2 -20 3 -16 13 8 11 -10 -3 -25 -11 -11 -10 -13 0 -7 15 9 36
-39 29 -66 -3 -10 -1 -15 4 -12 10 6 29 -36 22 -48 -2 -5 1 -8 6 -8 6 0 11 -5
11 -11 0 -5 -5 -7 -10 -4 -5 3 -10 1 -10 -4 0 -6 6 -11 14 -11 10 0 13 -7 11
-20 -2 -11 -1 -18 4 -16 7 5 37 -63 33 -76 -1 -5 3 -8 8 -8 6 0 10 -9 10 -20
0 -11 5 -20 11 -20 5 0 8 -4 5 -8 -3 -5 9 -6 26 -4 17 3 28 1 25 -4 -3 -5 11
-9 31 -10 31 0 72 -7 92 -14 3 -1 16 -2 30 -1 20 2 22 0 10 -8 -9 -7 -10 -11
-3 -11 6 0 14 4 17 9 3 5 15 7 26 4 11 -3 17 -9 14 -14 -3 -5 0 -9 5 -9 6 0
11 4 11 9 0 5 9 7 21 4 16 -4 17 -8 7 -14 -9 -6 -9 -9 -1 -9 6 0 15 5 18 10 9
15 25 2 18 -15 -3 -8 0 -15 7 -15 6 0 8 5 5 10 -12 19 27 24 41 5 8 -10 14
-13 14 -7 0 7 7 12 15 12 8 0 15 -5 15 -12 0 -6 3 -8 7 -4 11 11 31 -47 21
-61 -6 -7 -4 -14 3 -19 8 -4 9 -3 5 4 -4 7 -2 12 3 12 10 0 15 -14 12 -32 0
-5 4 -8 10 -8 5 0 7 -4 4 -10 -3 -5 -1 -10 4 -10 6 0 11 -7 11 -15 0 -8 5 -15
10 -15 6 0 10 -6 10 -14 0 -8 7 -16 15 -20 8 -3 20 -17 27 -31 6 -14 17 -25
25 -25 7 0 13 -10 13 -22 0 -19 2 -20 10 -8 9 13 10 13 11 0 1 -8 1 -18 0 -22
0 -5 2 -7 7 -7 18 3 35 -2 29 -8 -4 -4 7 -13 24 -20 20 -8 29 -18 26 -27 -4
-10 -1 -13 8 -10 17 7 47 -20 37 -31 -4 -5 -2 -5 5 -1 12 7 63 -12 63 -24 0
-4 6 -7 13 -8 34 -3 87 -29 87 -42 0 -13 2 -13 9 -1 6 9 15 11 27 6 11 -5 25
-7 33 -6 8 2 10 -2 5 -11 -6 -11 -5 -11 8 0 22 17 45 6 51 -26 3 -15 9 -35 12
-45 6 -14 3 -16 -11 -11 -11 4 -16 4 -12 0 3 -4 14 -9 25 -11 10 -1 17 -9 15
-16 -2 -8 0 -11 4 -6 4 4 20 -4 34 -18 29 -28 50 -34 122 -36 31 -2 45 -6 41
-13 -4 -7 -1 -6 8 1 16 13 36 12 58 -1 9 -6 12 -5 8 1 -5 7 11 12 43 15 28 1
50 -1 50 -5 0 -5 7 -1 16 7 8 9 20 13 26 10 6 -4 8 -2 5 3 -9 14 19 37 32 28
7 -3 8 0 5 9 -6 15 11 22 39 17 5 -1 6 3 2 9 -3 6 -11 8 -16 5 -12 -8 -11 -3
1 30 6 16 14 23 22 19 7 -5 8 -3 2 7 -12 19 -12 52 1 61 7 5 7 8 0 8 -18 0
-13 139 5 151 13 9 12 10 -2 5 -15 -4 -17 2 -15 50 2 35 8 59 17 66 13 8 12 9
-1 5 -14 -5 -16 3 -15 49 1 36 7 59 16 66 12 8 12 9 -2 4 -15 -4 -17 2 -15 50
2 35 8 59 17 66 12 8 12 9 -2 4 -12 -3 -18 0 -18 9 0 8 8 19 18 25 16 11 16
11 0 6 -15 -4 -17 2 -15 50 2 35 8 59 17 66 12 8 12 9 -2 4 -13 -4 -18 0 -18
15 0 13 4 18 13 13 10 -6 10 -4 0 7 -17 17 -17 43 0 33 8 -5 8 -2 -2 9 -11 14
-11 17 0 17 9 0 10 3 4 8 -14 9 -14 205 -1 214 8 5 8 8 0 8 -16 0 -11 59 6 71
13 9 13 10 -2 6 -14 -5 -16 1 -15 41 1 27 8 52 16 58 11 9 12 12 1 19 -9 5
-11 4 -6 -3 4 -7 2 -12 -4 -12 -14 0 -9 62 5 72 7 5 6 8 -1 8 -16 0 -11 79 6
91 13 9 13 10 -2 6 -12 -4 -16 0 -15 14 1 13 6 18 17 14 12 -4 11 -2 -2 8 -12
10 -16 25 -14 60 2 25 -1 48 -6 49 -5 2 -10 13 -11 25 0 12 -4 20 -8 17 -4 -2
-10 4 -14 15 -3 10 -22 27 -42 36 -27 13 -32 19 -22 26 8 5 -2 6 -25 2 -32 -5
-38 -4 -31 8 7 11 5 11 -10 -1 -11 -9 -16 -10 -11 -2 4 6 2 12 -3 12 -6 0 -11
-5 -11 -10 0 -13 -32 -9 -42 5 -5 6 -11 5 -16 -3 -10 -14 -33 -13 -44 3 -5 7
-11 6 -15 -1 -10 -12 -92 -13 -113 0 -12 8 -13 7 -3 -6 11 -12 8 -18 -20 -33
-18 -10 -39 -31 -46 -47 -7 -16 -23 -38 -35 -49 -20 -19 -20 -20 -1 -13 17 7
18 5 8 -8 -7 -8 -10 -17 -7 -20 2 -3 -2 -8 -10 -11 -9 -4 -18 -2 -22 4 -4 6
-12 5 -22 -3 -10 -8 -13 -9 -9 -1 5 8 -1 7 -20 -2 -39 -19 -68 -22 -68 -8 0 6
-3 15 -7 19 -4 3 -6 -3 -3 -15 3 -18 -6 -26 -59 -50 -35 -16 -66 -34 -70 -40
-4 -6 -12 -9 -17 -6 -5 4 -9 1 -9 -6 0 -7 -3 -10 -6 -6 -4 3 -15 -4 -25 -16
-10 -12 -18 -18 -19 -12 0 5 -7 -1 -16 -13 -9 -13 -22 -21 -30 -18 -9 3 -11 0
-7 -11 4 -11 2 -14 -5 -9 -7 4 -12 1 -12 -9 0 -9 -4 -14 -9 -10 -5 3 -12 -4
-16 -15 -3 -11 -15 -25 -26 -30 -10 -6 -19 -17 -19 -25 0 -9 -6 -12 -15 -9
-10 4 -14 1 -12 -7 2 -8 2 -11 0 -6 -3 4 -9 5 -13 2 -5 -3 -8 4 -7 15 1 12 7
18 13 16 7 -3 18 2 24 10 9 10 9 14 1 14 -6 0 -11 -4 -11 -9 0 -5 -8 -8 -17
-7 -10 0 -18 -4 -18 -11 0 -16 -11 -26 -13 -10 0 6 -5 29 -10 50 -12 45 -9 73
8 69 6 -1 9 2 5 8 -3 6 -11 8 -16 5 -13 -9 -18 10 -23 90 -2 39 -6 77 -8 85
-2 9 3 14 12 12 13 -2 13 -1 0 10 -16 13 -21 91 -7 104 4 4 2 13 -4 21 -9 10
-8 13 0 13 7 0 9 4 6 10 -8 13 15 171 24 166 4 -3 6 8 5 25 -1 16 2 29 7 29 5
0 8 3 8 8 -1 4 0 10 1 15 1 4 3 10 4 15 14 52 31 90 39 85 6 -3 7 -1 3 6 -4 6
-3 17 2 24 6 7 11 15 11 20 1 17 55 117 63 117 4 0 7 3 6 8 -4 11 42 82 53 82
5 0 8 6 7 13 -2 6 3 11 10 9 6 -1 11 1 10 5 -4 16 23 53 34 47 7 -5 8 -2 4 5
-5 8 13 34 48 71 31 32 56 57 56 54 0 -2 16 14 37 36 21 24 42 39 50 36 8 -3
12 -2 8 3 -6 10 49 57 129 111 27 18 46 27 42 19 -4 -8 -1 -6 7 3 8 10 17 15
20 11 4 -3 7 -1 7 6 0 7 4 10 9 6 6 -3 13 0 18 7 8 13 47 38 58 38 4 0 3 -5
-1 -12 -4 -7 -3 -8 5 -4 6 4 9 11 6 16 -3 4 2 10 10 14 8 3 15 0 16 -7 0 -7 5
-1 10 13 7 18 12 21 18 11 6 -10 10 -9 15 4 3 9 10 14 15 11 5 -4 11 -1 13 4
2 6 13 12 26 13 12 0 22 5 22 10 0 4 5 5 10 2 6 -3 10 -1 10 5 0 6 5 8 10 5 6
-4 7 -11 4 -17 -4 -7 -2 -8 5 -4 6 4 9 11 6 16 -4 7 13 17 45 25 3 1 13 5 23
10 10 4 31 8 47 9 17 0 30 5 30 10 0 4 9 6 20 3 12 -3 18 -1 14 5 -3 5 2 9 12
7 11 -1 26 1 34 4 33 12 69 14 63 3 -4 -6 1 -5 10 3 9 7 17 10 17 6 0 -4 6 -3
13 2 6 5 27 10 46 12 26 2 31 0 25 -11 -6 -10 -5 -11 7 -1 24 19 64 20 64 1 0
-9 3 -20 7 -23 3 -4 5 5 4 19 l-3 25 103 -2 c73 -1 104 -6 104 -14 0 -6 4 -15
10 -18 6 -3 7 1 4 10 -6 14 1 16 52 10 91 -9 99 -11 99 -23 0 -6 4 -14 8 -19
5 -4 7 -1 5 7 -2 11 5 14 27 12 17 -2 32 -8 33 -13 2 -5 7 -7 12 -4 10 6 110
-16 110 -25 0 -3 8 -7 18 -8 42 -5 57 -10 54 -22 -1 -6 3 -8 9 -5 6 4 21 3 32
-3 12 -5 48 -21 79 -33 35 -15 56 -29 53 -36 -2 -7 1 -15 7 -19 6 -4 8 -3 4 4
-3 6 -2 13 4 17 6 3 13 -1 16 -9 3 -9 9 -14 13 -12 10 7 82 -40 74 -48 -4 -4
-1 -4 8 -1 8 3 24 -4 36 -15 12 -11 26 -20 30 -20 4 0 21 -11 37 -25 16 -14
33 -25 39 -25 5 0 7 -7 4 -14 -4 -10 -1 -13 7 -10 8 3 31 -9 52 -27 22 -18 40
-34 42 -35 2 -1 4 -11 5 -22 0 -12 3 -19 6 -17 2 3 14 -3 25 -12 l21 -18 -20
25 c-11 14 -1 6 23 -18 23 -24 39 -48 36 -54 -4 -6 -3 -8 3 -5 13 8 46 -31 39
-48 -2 -7 3 -12 12 -11 9 0 21 -9 27 -21 5 -13 13 -23 17 -23 5 0 8 -5 8 -11
0 -5 -5 -7 -12 -3 -7 4 -8 3 -4 -4 4 -6 12 -9 19 -6 8 3 20 -8 27 -23 8 -15
23 -41 34 -57 11 -16 15 -27 10 -23 -6 3 -11 0 -11 -7 0 -8 6 -12 12 -10 14 6
49 -61 40 -75 -3 -5 0 -13 6 -17 8 -5 9 -3 4 7 -7 12 -5 12 6 1 12 -11 12 -14
-1 -22 -12 -8 -12 -10 4 -10 11 0 17 -3 13 -6 -3 -4 1 -13 9 -22 10 -9 14 -27
12 -43 -3 -15 -1 -26 3 -24 4 3 9 -5 12 -16 4 -15 2 -19 -9 -15 -9 3 -12 1 -9
-4 3 -6 12 -10 18 -10 17 0 36 -86 23 -101 -8 -9 -8 -10 2 -5 6 4 12 4 13 -1
0 -4 2 -30 4 -58 2 -27 -1 -55 -7 -62 -8 -10 -7 -12 4 -8 9 4 15 0 15 -10 0
-8 -5 -15 -11 -15 -7 0 -7 -3 -1 -8 12 -8 16 -84 4 -76 -4 2 -11 -1 -15 -7 -4
-7 -3 -9 4 -5 6 3 14 1 18 -5 3 -6 0 -15 -7 -20 -8 -5 -9 -9 -3 -9 7 0 9 -12
7 -27 -2 -16 -6 -48 -8 -73 -2 -25 -6 -63 -10 -85 -4 -22 -7 -46 -8 -52 0 -7
-7 -13 -16 -14 -10 0 -12 -2 -3 -6 6 -2 12 -9 12 -15 0 -6 -7 -7 -15 -4 -9 3
-18 -1 -21 -9 -4 -8 -9 -13 -13 -10 -4 2 -8 -2 -8 -10 0 -10 4 -12 12 -5 7 5
15 7 19 3 4 -4 4 1 0 12 -5 15 -4 17 5 9 6 -6 9 -18 6 -26 -5 -13 -23 -16 -57
-9 -8 1 -4 28 5 37 4 4 7 12 7 18 0 6 -5 3 -11 -6 -12 -22 -29 -23 -29 -2 0 8
-4 12 -10 9 -9 -6 -14 8 -11 28 0 4 -5 6 -11 5 -7 -2 -12 3 -10 10 1 6 -1 11
-5 11 -19 -3 -33 2 -33 12 0 5 4 8 8 5 5 -3 9 1 9 9 0 10 -4 12 -12 5 -16 -13
-45 -2 -45 16 0 8 -6 13 -12 12 -7 -2 -12 3 -10 10 1 6 -1 11 -5 11 -27 -4
-45 4 -53 24 -5 12 -9 16 -9 9 -1 -10 -6 -10 -21 -2 -11 6 -17 16 -14 22 5 7
2 9 -7 6 -18 -7 -62 9 -55 20 3 5 -5 7 -18 5 -25 -5 -53 26 -38 42 4 5 2 5 -5
1 -7 -4 -10 -13 -7 -21 4 -10 0 -12 -15 -8 -12 3 -18 10 -14 17 3 6 3 8 -2 4
-4 -4 -15 -2 -24 5 -14 11 -15 10 -1 -7 14 -18 14 -19 -5 -11 -11 4 -28 8 -38
9 -10 0 -15 6 -13 13 3 7 1 15 -5 18 -5 4 -8 12 -7 19 3 12 -58 101 -70 101
-4 0 -6 2 -5 5 1 5 -38 11 -82 13 -11 0 -23 6 -27 11 -5 7 -11 6 -18 -4 -9
-13 -11 -13 -20 0 -9 13 -10 13 -10 0 0 -13 -1 -13 -10 0 -7 10 -12 11 -17 4
-10 -13 -73 -13 -65 1 3 5 -2 4 -11 -4 -14 -11 -17 -11 -17 0 0 9 -3 10 -8 3
-4 -5 -28 -18 -55 -28 -26 -10 -45 -21 -42 -26 3 -4 -2 -11 -11 -14 -31 -12
-47 -76 -48 -196 -1 -103 -3 -115 -18 -114 -10 1 -15 -3 -12 -8 3 -5 12 -7 20
-4 16 6 16 -28 0 -53 -6 -10 -5 -12 3 -7 8 6 11 0 8 -21 -3 -18 -10 -28 -20
-27 -9 1 -14 -3 -11 -8 3 -5 12 -7 20 -4 16 6 16 -28 0 -53 -6 -10 -5 -12 3
-7 14 9 11 -30 -3 -53 -6 -10 -5 -12 3 -7 14 9 11 -30 -3 -53 -6 -10 -5 -12 3
-7 8 6 11 0 8 -21 -2 -15 -9 -28 -15 -28 -5 0 -14 -3 -18 -7 -3 -4 3 -5 15 -3
17 3 21 0 19 -18 -2 -12 -7 -28 -12 -36 -6 -10 -5 -12 3 -7 8 6 11 0 8 -21 -3
-18 -10 -28 -20 -27 -9 1 -14 -3 -11 -8 3 -5 12 -7 20 -4 16 6 16 -28 0 -53
-6 -10 -5 -12 3 -7 9 6 11 -43 11 -206 -1 -184 -4 -216 -18 -233 -16 -19 -16
-19 1 -6 16 13 18 12 15 -10 -2 -13 -7 -30 -12 -38 -6 -9 -5 -12 1 -8 13 8 12
-91 -1 -112 -6 -9 -5 -12 0 -8 6 3 10 -18 11 -53 1 -50 -1 -58 -15 -54 -15 5
-14 4 1 -6 9 -6 17 -19 17 -28 0 -10 9 -35 20 -56 10 -22 17 -42 15 -47 -3 -4
0 -11 6 -15 8 -4 9 -3 5 4 -4 7 -5 12 -2 12 11 0 75 -48 70 -52 -2 -3 7 -3 21
-1 14 3 33 -1 42 -8 9 -8 14 -9 10 -3 -4 7 21 10 81 9 48 0 106 5 129 11 23 6
45 9 49 5 4 -3 4 -1 0 6 -4 7 4 19 18 29 14 9 31 31 38 49 6 19 15 32 18 30 4
-3 5 7 2 20 -2 14 0 25 4 26 60 7 92 11 107 12 9 1 17 5 17 10 0 4 3 6 8 4 4
-3 24 3 44 13 26 12 38 14 42 6 2 -6 5 -3 5 6 1 10 13 19 31 23 17 4 30 11 30
15 0 14 87 70 95 62 5 -4 5 -2 1 5 -3 6 -2 14 4 18 5 3 10 0 11 -7 0 -7 4 -3
10 10 5 15 13 21 21 16 7 -4 10 -4 6 1 -11 11 12 36 25 28 5 -3 7 -2 4 4 -8
12 37 56 47 46 4 -4 5 -1 1 7 -3 8 5 26 18 40 12 14 33 48 47 77 13 29 29 49
35 45 5 -3 4 1 -3 10 -10 12 -10 17 1 27 8 6 17 8 20 4 4 -3 7 -1 7 6 0 8 8
11 20 8 11 -3 22 -1 25 3 3 5 14 7 25 5 11 -2 20 1 20 7 0 6 7 5 17 -3 11 -10
14 -10 9 -1 -4 6 -3 12 1 12 5 0 15 -6 22 -12 10 -11 12 -10 9 2 -2 9 6 15 20
16 12 1 23 2 25 4 3 2 35 8 77 14 53 8 91 15 135 27 34 9 44 17 58 50 9 21 17
42 17 45 0 3 10 26 21 52 19 42 26 62 28 85 1 5 5 6 10 3 5 -4 8 2 6 11 -1 10
2 27 8 38 6 11 12 25 13 32 6 33 27 83 33 79 4 -3 8 1 8 9 0 8 -4 12 -9 9 -4
-3 -8 -1 -8 5 0 5 5 13 10 16 6 4 7 11 4 17 -5 8 -1 9 11 4 15 -6 16 -4 5 10
-12 13 -11 17 1 25 8 5 9 9 3 9 -8 0 -8 13 -1 48 6 26 14 49 17 52 3 3 5 16 5
30 0 14 6 31 15 38 8 8 9 11 2 7 -9 -5 -12 2 -10 24 1 17 7 31 12 31 6 0 5 5
-1 11 -7 7 -8 21 -2 41 4 17 6 35 3 39 -3 5 -2 9 3 9 4 0 6 23 5 50 -3 32 1
57 10 67 9 12 9 15 1 9 -9 -5 -13 0 -13 15 0 18 3 20 12 11 7 -7 16 -12 22
-12 5 0 1 6 -9 14 -20 15 -28 56 -11 56 7 0 7 3 1 8 -16 11 -18 52 -3 52 9 0
10 2 1 8 -13 8 -21 131 -10 150 5 7 5 12 0 11 -20 -4 -24 2 -12 18 12 14 12
16 0 8 -11 -6 -13 -2 -9 18 3 15 2 28 -2 29 -4 2 -11 23 -15 48 -11 75 -11 85
3 82 8 -1 11 2 7 7 -3 6 -11 8 -19 5 -7 -3 -13 1 -14 8 0 7 -7 34 -16 61 -8
26 -12 47 -8 47 4 0 3 4 -3 8 -15 11 -46 103 -38 116 3 6 3 8 -2 4 -7 -7 -58
85 -59 107 -1 6 -7 16 -14 23 -7 8 -10 18 -7 23 4 5 2 9 -3 9 -5 0 -20 21 -33
48 -13 26 -27 49 -31 50 -5 2 -8 10 -8 18 0 9 5 12 12 8 7 -4 8 -3 4 4 -4 6
-14 8 -23 5 -11 -4 -14 -2 -11 8 2 7 -5 21 -16 30 -18 15 -19 19 -6 35 14 17
13 18 -2 6 -11 -9 -18 -10 -23 -2 -3 5 -3 10 1 10 4 0 -3 8 -14 19 -12 10 -22
21 -22 25 0 4 -14 21 -30 39 -17 18 -28 38 -25 44 2 7 0 12 -4 10 -14 -3 -51
44 -44 56 3 5 2 7 -4 4 -13 -8 -44 30 -37 47 3 8 1 17 -5 21 -7 4 -8 0 -4 -11
4 -12 2 -15 -8 -12 -8 3 -13 12 -13 21 1 10 -4 13 -14 9 -11 -4 -14 -1 -9 11
4 12 2 14 -10 10 -12 -5 -15 -2 -11 9 4 10 1 15 -10 14 -9 0 -22 10 -29 24 -7
14 -13 21 -13 15 0 -5 -6 -3 -13 5 -7 8 -32 31 -57 50 -25 19 -46 38 -48 42
-2 4 -10 8 -18 8 -8 0 -14 7 -14 16 0 8 -4 13 -9 10 -5 -4 -11 -3 -13 2 -1 4
-20 18 -40 31 -21 12 -38 27 -38 32 0 6 -4 7 -10 4 -5 -3 -10 -2 -10 4 0 5
-10 13 -22 17 -13 4 -36 21 -52 38 -16 17 -26 25 -22 19 10 -17 0 -16 -29 3
-14 9 -23 20 -20 24 3 5 0 12 -6 16 -8 4 -9 3 -5 -4 4 -7 2 -12 -5 -12 -16 0
-91 42 -107 60 -9 10 -11 10 -7 2 6 -11 3 -12 -14 -2 -12 6 -19 15 -16 20 3 4
-4 6 -15 3 -12 -3 -20 0 -20 6 0 7 -4 9 -10 6 -5 -3 -10 -1 -10 5 0 6 -4 9 -9
5 -11 -6 -61 15 -61 26 0 5 -7 6 -15 3 -8 -4 -15 -1 -15 5 0 6 5 11 12 11 6 0
8 3 5 6 -4 4 -13 1 -21 -5 -10 -9 -20 -9 -33 -2 -23 13 -128 47 -170 56 -18 4
-33 10 -33 15 0 4 -9 6 -20 3 -11 -3 -20 -1 -20 3 0 5 -19 10 -42 12 -23 1
-48 7 -55 13 -6 6 -18 7 -24 3 -9 -5 -10 -2 -6 12 6 16 5 17 -5 4 -7 -9 -21
-14 -31 -12 -15 3 -16 6 -5 20 11 14 10 14 -8 -1 -11 -9 -24 -14 -27 -10 -6 6
-33 9 -90 12 -12 1 -16 5 -11 14 5 8 2 8 -9 -2 -13 -10 -17 -10 -17 -1 0 10
-3 10 -15 0 -8 -7 -15 -8 -15 -3 0 5 -25 8 -55 7 -39 -1 -53 1 -48 10 5 8 3 8
-8 -1 -21 -17 -32 -16 -40 4 -6 14 -8 14 -8 3z"/>
<path d="M2986 4402 c-3 -5 1 -9 9 -9 8 0 12 4 9 9 -3 4 -7 8 -9 8 -2 0 -6 -4
-9 -8z"/>
<path d="M2036 4378 c3 -5 10 -6 15 -3 13 9 11 12 -6 12 -8 0 -12 -4 -9 -9z"/>
<path d="M2130 4380 c0 -5 5 -10 11 -10 5 0 7 5 4 10 -3 6 -8 10 -11 10 -2 0
-4 -4 -4 -10z"/>
<path d="M3210 4300 c0 -5 5 -10 11 -10 5 0 7 5 4 10 -3 6 -8 10 -11 10 -2 0
-4 -4 -4 -10z"/>
<path d="M1606 4242 c-3 -5 1 -9 9 -9 8 0 12 4 9 9 -3 4 -7 8 -9 8 -2 0 -6 -4
-9 -8z"/>
<path d="M1575 4220 c-3 -5 -1 -10 4 -10 6 0 11 5 11 10 0 6 -2 10 -4 10 -3 0
-8 -4 -11 -10z"/>
<path d="M3460 4220 c-12 -7 -10 -9 7 -7 12 0 19 5 17 9 -6 10 -6 10 -24 -2z"/>
<path d="M3527 4179 c7 -7 15 -10 18 -7 3 3 -2 9 -12 12 -14 6 -15 5 -6 -5z"/>
<path d="M3620 4120 c-9 -6 -10 -10 -3 -10 6 0 15 5 18 10 8 12 4 12 -15 0z"/>
<path d="M3810 4019 c0 -5 5 -7 10 -4 6 3 10 8 10 11 0 2 -4 4 -10 4 -5 0 -10
-5 -10 -11z"/>
<path d="M3935 3949 c-4 -6 -5 -12 -2 -15 2 -3 7 2 10 11 7 17 1 20 -8 4z"/>
<path d="M4010 3860 c-9 -6 -10 -10 -3 -10 6 0 15 5 18 10 8 12 4 12 -15 0z"/>
<path d="M2460 3685 c0 -7 30 -13 34 -7 3 4 -4 9 -15 9 -10 1 -19 0 -19 -2z"/>
<path d="M2525 3660 c-3 -6 1 -7 9 -4 18 7 21 14 7 14 -6 0 -13 -4 -16 -10z"/>
<path d="M2747 3659 c7 -7 15 -10 18 -7 3 3 -2 9 -12 12 -14 6 -15 5 -6 -5z"/>
<path d="M2930 3620 c0 -5 5 -10 11 -10 5 0 7 5 4 10 -3 6 -8 10 -11 10 -2 0
-4 -4 -4 -10z"/>
<path d="M1977 3595 c-4 -8 -3 -16 1 -19 4 -3 9 4 9 15 2 23 -3 25 -10 4z"/>
<path d="M4335 3540 c-3 -5 -1 -10 4 -10 6 0 11 5 11 10 0 6 -2 10 -4 10 -3 0
-8 -4 -11 -10z"/>
<path d="M1833 3525 c0 -8 4 -12 9 -9 5 3 6 10 3 15 -9 13 -12 11 -12 -6z"/>
<path d="M653 3515 c0 -8 4 -12 9 -9 5 3 6 10 3 15 -9 13 -12 11 -12 -6z"/>
<path d="M4366 3478 c3 -5 10 -6 15 -3 13 9 11 12 -6 12 -8 0 -12 -4 -9 -9z"/>
<path d="M3295 3471 c-3 -5 -2 -12 3 -15 5 -3 9 1 9 9 0 17 -3 19 -12 6z"/>
<path d="M1713 3435 c0 -8 4 -12 9 -9 5 3 6 10 3 15 -9 13 -12 11 -12 -6z"/>
<path d="M573 3409 c-2 -23 3 -25 10 -4 4 8 3 16 -1 19 -4 3 -9 -4 -9 -15z"/>
<path d="M3356 3418 c3 -5 10 -6 15 -3 13 9 11 12 -6 12 -8 0 -12 -4 -9 -9z"/>
<path d="M555 3369 c-4 -6 -5 -12 -2 -15 2 -3 7 2 10 11 7 17 1 20 -8 4z"/>
<path d="M1529 3363 c-13 -16 -12 -17 4 -4 9 7 17 15 17 17 0 8 -8 3 -21 -13z"/>
<path d="M516 3342 c-3 -5 1 -9 9 -9 8 0 12 4 9 9 -3 4 -7 8 -9 8 -2 0 -6 -4
-9 -8z"/>
<path d="M1500 3346 c0 -2 8 -10 18 -17 15 -13 16 -12 3 4 -13 16 -21 21 -21
13z"/>
<path d="M1475 3331 c-3 -5 -2 -12 3 -15 5 -3 9 1 9 9 0 17 -3 19 -12 6z"/>
<path d="M3573 3275 c0 -8 4 -12 9 -9 5 3 6 10 3 15 -9 13 -12 11 -12 -6z"/>
<path d="M1413 3265 c0 -8 4 -12 9 -9 5 3 6 10 3 15 -9 13 -12 11 -12 -6z"/>
<path d="M3594 3206 c1 -8 5 -18 8 -22 4 -3 5 1 4 10 -1 8 -5 18 -8 22 -4 3
-5 -1 -4 -10z"/>
<path d="M416 3133 c-4 -9 -3 -20 1 -24 4 -4 9 3 9 17 2 28 -1 31 -10 7z"/>
<path d="M4575 3141 c-3 -5 -2 -12 3 -15 5 -3 9 1 9 9 0 17 -3 19 -12 6z"/>
<path d="M1309 3123 c-13 -16 -12 -17 4 -4 9 7 17 15 17 17 0 8 -8 3 -21 -13z"/>
<path d="M4586 3098 c3 -5 10 -6 15 -3 13 9 11 12 -6 12 -8 0 -12 -4 -9 -9z"/>
<path d="M1256 3058 c3 -5 10 -6 15 -3 13 9 11 12 -6 12 -8 0 -12 -4 -9 -9z"/>
<path d="M3796 2998 c3 -5 10 -6 15 -3 13 9 11 12 -6 12 -8 0 -12 -4 -9 -9z"/>
<path d="M4625 3000 c-3 -6 1 -7 9 -4 18 7 21 14 7 14 -6 0 -13 -4 -16 -10z"/>
<path d="M1170 2979 c0 -5 5 -7 10 -4 6 3 10 8 10 11 0 2 -4 4 -10 4 -5 0 -10
-5 -10 -11z"/>
<path d="M4673 2855 c0 -8 4 -12 9 -9 5 3 6 10 3 15 -9 13 -12 11 -12 -6z"/>
<path d="M1159 2833 c-13 -16 -12 -17 4 -4 9 7 17 15 17 17 0 8 -8 3 -21 -13z"/>
<path d="M3956 2737 c3 -10 9 -15 12 -12 3 3 0 11 -7 18 -10 9 -11 8 -5 -6z"/>
<path d="M1073 2685 c0 -8 4 -12 9 -9 5 3 6 10 3 15 -9 13 -12 11 -12 -6z"/>
<path d="M256 2622 c-3 -5 1 -9 9 -9 8 0 12 4 9 9 -3 4 -7 8 -9 8 -2 0 -6 -4
-9 -8z"/>
<path d="M1010 2620 c0 -5 5 -10 11 -10 5 0 7 5 4 10 -3 6 -8 10 -11 10 -2 0
-4 -4 -4 -10z"/>
<path d="M3959 2573 c-12 -16 -12 -17 2 -6 9 7 20 9 24 5 5 -4 5 -1 1 6 -9 16
-11 15 -27 -5z"/>
<path d="M975 2481 c-3 -5 -2 -12 3 -15 5 -3 9 1 9 9 0 17 -3 19 -12 6z"/>
<path d="M235 2460 c3 -5 8 -10 11 -10 2 0 4 5 4 10 0 6 -5 10 -11 10 -5 0 -7
-4 -4 -10z"/>
<path d="M4746 2458 c3 -5 10 -6 15 -3 13 9 11 12 -6 12 -8 0 -12 -4 -9 -9z"/>
<path d="M1760 2440 c-9 -6 -10 -10 -3 -10 6 0 15 5 18 10 8 12 4 12 -15 0z"/>
<path d="M3116 2433 c-6 -14 -5 -15 5 -6 7 7 10 15 7 18 -3 3 -9 -2 -12 -12z"/>
<path d="M3300 2440 c-9 -6 -10 -10 -3 -10 6 0 15 5 18 10 8 12 4 12 -15 0z"/>
<path d="M3400 2400 c-9 -6 -10 -10 -3 -10 6 0 15 5 18 10 8 12 4 12 -15 0z"/>
<path d="M3436 2362 c-3 -5 1 -9 9 -9 8 0 12 4 9 9 -3 4 -7 8 -9 8 -2 0 -6 -4
-9 -8z"/>
<path d="M970 2340 c0 -5 5 -10 11 -10 5 0 7 5 4 10 -3 6 -8 10 -11 10 -2 0
-4 -4 -4 -10z"/>
<path d="M1586 2338 c3 -5 10 -6 15 -3 13 9 11 12 -6 12 -8 0 -12 -4 -9 -9z"/>
<path d="M2873 2325 c0 -8 4 -12 9 -9 5 3 6 10 3 15 -9 13 -12 11 -12 -6z"/>
<path d="M3985 2300 c-3 -6 1 -7 9 -4 18 7 21 14 7 14 -6 0 -13 -4 -16 -10z"/>
<path d="M1500 2286 c0 -2 8 -10 18 -17 15 -13 16 -12 3 4 -13 16 -21 21 -21
13z"/>
<path d="M3456 2273 c-6 -14 -5 -15 5 -6 7 7 10 15 7 18 -3 3 -9 -2 -12 -12z"/>
<path d="M1546 2257 c3 -10 9 -15 12 -12 3 3 0 11 -7 18 -10 9 -11 8 -5 -6z"/>
<path d="M3613 2245 c0 -8 4 -12 9 -9 5 3 6 10 3 15 -9 13 -12 11 -12 -6z"/>
<path d="M4750 2159 c0 -5 5 -7 10 -4 6 3 10 8 10 11 0 2 -4 4 -10 4 -5 0 -10
-5 -10 -11z"/>
<path d="M4010 2140 c0 -5 5 -10 11 -10 5 0 7 5 4 10 -3 6 -8 10 -11 10 -2 0
-4 -4 -4 -10z"/>
<path d="M3810 2100 c0 -5 5 -10 11 -10 5 0 7 5 4 10 -3 6 -8 10 -11 10 -2 0
-4 -4 -4 -10z"/>
<path d="M1027 2079 c7 -7 15 -10 18 -7 3 3 -2 9 -12 12 -14 6 -15 5 -6 -5z"/>
<path d="M3966 2082 c-3 -5 1 -9 9 -9 8 0 12 4 9 9 -3 4 -7 8 -9 8 -2 0 -6 -4
-9 -8z"/>
<path d="M1093 2055 c0 -8 4 -12 9 -9 5 3 6 10 3 15 -9 13 -12 11 -12 -6z"/>
<path d="M3995 2050 c-3 -5 -3 -10 2 -10 4 0 1 -5 -7 -11 -12 -8 -12 -10 -1
-7 8 2 15 12 17 21 3 19 -2 22 -11 7z"/>
<path d="M255 2020 c-3 -5 -1 -10 4 -10 6 0 11 5 11 10 0 6 -2 10 -4 10 -3 0
-8 -4 -11 -10z"/>
<path d="M3956 2005 c4 -8 8 -15 10 -15 2 0 4 7 4 15 0 8 -4 15 -10 15 -5 0
-7 -7 -4 -15z"/>
<path d="M1001 1994 c0 -11 3 -14 6 -6 3 7 2 16 -1 19 -3 4 -6 -2 -5 -13z"/>
<path d="M2856 1953 c-6 -14 -5 -15 5 -6 7 7 10 15 7 18 -3 3 -9 -2 -12 -12z"/>
<path d="M276 1838 c3 -5 10 -6 15 -3 13 9 11 12 -6 12 -8 0 -12 -4 -9 -9z"/>
<path d="M2130 1841 c0 -6 4 -13 10 -16 6 -3 7 1 4 9 -7 18 -14 21 -14 7z"/>
<path d="M2856 1833 c-6 -14 -5 -15 5 -6 7 7 10 15 7 18 -3 3 -9 -2 -12 -12z"/>
<path d="M2130 1781 c0 -6 4 -13 10 -16 6 -3 7 1 4 9 -7 18 -14 21 -14 7z"/>
<path d="M2856 1767 c3 -10 9 -15 12 -12 3 3 0 11 -7 18 -10 9 -11 8 -5 -6z"/>
<path d="M4646 1662 c-3 -5 1 -9 9 -9 8 0 12 4 9 9 -3 4 -7 8 -9 8 -2 0 -6 -4
-9 -8z"/>
<path d="M2856 1647 c3 -10 9 -15 12 -12 3 3 0 11 -7 18 -10 9 -11 8 -5 -6z"/>
<path d="M4627 1599 c7 -7 15 -10 18 -7 3 3 -2 9 -12 12 -14 6 -15 5 -6 -5z"/>
<path d="M2130 1501 c0 -6 4 -13 10 -16 6 -3 7 1 4 9 -7 18 -14 21 -14 7z"/>
<path d="M2130 1441 c0 -6 4 -13 10 -16 6 -3 7 1 4 9 -7 18 -14 21 -14 7z"/>
<path d="M2879 1418 c-6 -20 -6 -39 0 -42 4 -3 7 6 7 20 0 20 -4 32 -7 22z"/>
<path d="M2110 1369 c0 -5 5 -7 10 -4 6 3 10 8 10 11 0 2 -4 4 -10 4 -5 0 -10
-5 -10 -11z"/>
<path d="M613 1285 c0 -8 4 -12 9 -9 5 3 6 10 3 15 -9 13 -12 11 -12 -6z"/>
<path d="M2130 1281 c0 -6 4 -13 10 -16 6 -3 7 1 4 9 -7 18 -14 21 -14 7z"/>
<path d="M2879 1258 c-6 -20 -6 -39 0 -42 4 -3 7 6 7 20 0 20 -4 32 -7 22z"/>
<path d="M2110 1209 c0 -5 5 -7 10 -4 6 3 10 8 10 11 0 2 -4 4 -10 4 -5 0 -10
-5 -10 -11z"/>
<path d="M956 1193 c-6 -14 -5 -15 5 -6 7 7 10 15 7 18 -3 3 -9 -2 -12 -12z"/>
<path d="M4050 1179 c0 -5 5 -7 10 -4 6 3 10 8 10 11 0 2 -4 4 -10 4 -5 0 -10
-5 -10 -11z"/>
<path d="M3994 1080 c0 -13 4 -16 10 -10 7 7 7 13 0 20 -6 6 -10 3 -10 -10z"/>
<path d="M2130 1041 c0 -6 4 -13 10 -16 6 -3 7 1 4 9 -7 18 -14 21 -14 7z"/>
<path d="M1055 1020 c-3 -6 1 -7 9 -4 18 7 21 14 7 14 -6 0 -13 -4 -16 -10z"/>
<path d="M2853 995 c0 -8 4 -12 9 -9 5 3 6 10 3 15 -9 13 -12 11 -12 -6z"/>
<path d="M2110 969 c0 -5 5 -7 10 -4 6 3 10 8 10 11 0 2 -4 4 -10 4 -5 0 -10
-5 -10 -11z"/>
<path d="M2856 873 c-6 -14 -5 -15 5 -6 7 7 10 15 7 18 -3 3 -9 -2 -12 -12z"/>
<path d="M1366 782 c-3 -5 1 -9 9 -9 8 0 12 4 9 9 -3 4 -7 8 -9 8 -2 0 -6 -4
-9 -8z"/>
<path d="M3515 749 c-4 -6 -5 -12 -2 -15 2 -3 7 2 10 11 7 17 1 20 -8 4z"/>
<path d="M1553 728 c1 -15 6 -23 11 -18 4 4 4 16 -2 26 -9 16 -10 14 -9 -8z"/>
<path d="M3435 740 c-3 -5 -1 -10 4 -10 6 0 11 5 11 10 0 6 -2 10 -4 10 -3 0
-8 -4 -11 -10z"/>
<path d="M3450 699 c0 -5 5 -7 10 -4 6 3 10 8 10 11 0 2 -4 4 -10 4 -5 0 -10
-5 -10 -11z"/>
<path d="M2896 653 c-6 -14 -5 -15 5 -6 7 7 10 15 7 18 -3 3 -9 -2 -12 -12z"/>
<path d="M3186 562 c-2 -4 4 -8 14 -8 10 0 16 4 14 8 -3 4 -9 8 -14 8 -5 0
-11 -4 -14 -8z"/>
</g>
</svg>
